<svg width="778" height="1524" viewBox="0 0 778 1524" fill="none" xmlns="http://www.w3.org/2000/svg">
<rect width="764" height="1363" fill="url(#paint0_linear_10_43)"/>
<rect width="764" height="1363" fill="url(#paint1_linear_10_43)" fill-opacity="0.2"/>
<rect x="11" y="988" width="51" height="426" fill="white"/>
<rect x="78" y="1114" width="80" height="410" fill="white"/>
<rect x="101" y="1102" width="57" height="23" fill="white"/>
<rect x="145" y="1021" width="13" height="93" fill="white"/>
<rect x="171" y="1319" width="39" height="62" fill="white"/>
<rect x="195" y="1220" width="6" height="111" fill="white"/>
<rect x="575" y="1220" width="130" height="194" fill="white"/>
<rect x="666" y="1035" width="70" height="346" fill="white"/>
<rect x="723" y="952" width="35" height="429" fill="white"/>
<rect x="758" y="1220" width="20" height="43" fill="white"/>
<path d="M661.062 1393.44L682.87 1382.36L663.711 1417.76L661.062 1393.44Z" fill="#7BFFD2"/>
<path d="M611.493 829.546L647.659 823.666L612.164 866.182L611.493 829.546Z" fill="#7BFFD2"/>
<path d="M92.7003 1379.42L128.378 1363.53L107.21 1415.68L92.7003 1379.42Z" fill="#7BFFD2"/>
<path d="M67.8834 1134.05L90.4429 1137.57L80.2526 1153.24L67.8834 1134.05Z" fill="#7BFFD2"/>
<path d="M97.8311 468.516L104.952 467.581L99.8672 475.403L97.8311 468.516Z" fill="#7BFFD2"/>
<path d="M628.508 1354.55L637.65 1350.17L629.841 1364.6L628.508 1354.55Z" fill="#7BFFD2"/>
<path d="M683.508 1250.33L692.65 1245.95L684.841 1260.38L683.508 1250.33Z" fill="#7BFFD2"/>
<defs>
<linearGradient id="paint0_linear_10_43" x1="382" y1="0" x2="382" y2="1363" gradientUnits="userSpaceOnUse">
<stop stop-color="#61DCB4"/>
<stop offset="1" stop-color="#00A86F"/>
</linearGradient>
<linearGradient id="paint1_linear_10_43" x1="0" y1="0" x2="133.5" y2="79.5" gradientUnits="userSpaceOnUse">
<stop offset="0.519231" stop-color="#D9D9D9"/>
<stop offset="0.841346" stop-color="#D14700"/>
</linearGradient>
</defs>
</svg>
