<svg width="1422" height="759" viewBox="0 0 1422 759" fill="none" xmlns="http://www.w3.org/2000/svg">
<g clip-path="url(#clip0_13_77)">
<rect width="1422" height="759" fill="url(#paint0_linear_13_77)"/>
<rect width="1422" height="759" fill="url(#paint1_linear_13_77)" fill-opacity="0.2"/>
<rect x="12" y="578.082" width="31.0522" height="207.371" fill="white"/>
<rect x="52.7939" y="639.417" width="48.7093" height="199.583" fill="white"/>
<rect x="66.7979" y="633.576" width="34.7053" height="11.1961" fill="white"/>
<rect x="93.588" y="594.146" width="7.91525" height="45.2712" fill="white"/>
<rect x="109.418" y="739.208" width="23.7458" height="30.1808" fill="white"/>
<rect x="124.031" y="691.017" width="3.65319" height="54.0334" fill="white"/>
<rect x="355.4" y="691.017" width="79.1525" height="94.4367" fill="white"/>
<rect x="410.807" y="600.961" width="42.6206" height="168.428" fill="white"/>
<rect x="445.512" y="560.558" width="21.3103" height="208.832" fill="white"/>
<rect x="466.823" y="691.017" width="12.1773" height="20.9318" fill="white"/>
<path d="M377.62 500.949L399.64 498.086L378.028 518.782L377.62 500.949Z" fill="#FF9761"/>
<path d="M61.7445 768.618L83.4671 760.883L70.5787 786.269L61.7445 768.618Z" fill="#626262"/>
<path d="M46.6343 649.177L60.37 650.889L54.1655 658.519L46.6343 649.177Z" fill="#626262"/>
<path d="M387.98 756.515L393.546 754.382L388.791 761.407L387.98 756.515Z" fill="#FF9761"/>
<path d="M421.467 705.782L427.033 703.649L422.279 710.674L421.467 705.782Z" fill="#D14700"/>
<rect x="602" y="596.082" width="31.0522" height="207.371" fill="white"/>
<rect x="642.794" y="657.417" width="48.7093" height="199.583" fill="white"/>
<rect x="656.798" y="651.576" width="34.7053" height="11.1961" fill="white"/>
<rect x="683.588" y="612.146" width="7.91525" height="45.2712" fill="white"/>
<rect x="699.418" y="757.208" width="23.7458" height="30.1808" fill="white"/>
<rect x="714.031" y="709.017" width="3.65319" height="54.0334" fill="white"/>
<rect x="945.4" y="709.017" width="79.1525" height="94.4367" fill="white"/>
<rect x="1000.81" y="618.961" width="42.6206" height="168.428" fill="white"/>
<rect x="1035.51" y="578.558" width="21.3103" height="208.832" fill="white"/>
<rect x="1056.82" y="709.017" width="12.1773" height="20.9318" fill="white"/>
<path d="M967.62 518.949L989.64 516.086L968.028 536.782L967.62 518.949Z" fill="#FF9761"/>
<path d="M636.634 667.177L650.37 668.889L644.166 676.519L636.634 667.177Z" fill="#626262"/>
<path d="M1011.47 723.782L1017.03 721.649L1012.28 728.674L1011.47 723.782Z" fill="#D14700"/>
<rect x="1247" y="585.082" width="31.0522" height="207.371" fill="white"/>
<rect x="1287.79" y="646.417" width="48.7093" height="199.583" fill="white"/>
<rect x="1301.8" y="640.576" width="34.7053" height="11.1961" fill="white"/>
<rect x="1328.59" y="601.146" width="7.91525" height="45.2712" fill="white"/>
<rect x="1344.42" y="746.208" width="23.7458" height="30.1808" fill="white"/>
<rect x="1359.03" y="698.017" width="3.65319" height="54.0334" fill="white"/>
<path d="M1281.63 656.177L1295.37 657.889L1289.17 665.519L1281.63 656.177Z" fill="#626262"/>
</g>
<defs>
<linearGradient id="paint0_linear_13_77" x1="711" y1="0" x2="711" y2="759" gradientUnits="userSpaceOnUse">
<stop stop-color="#61BDFF"/>
<stop offset="1" stop-color="#004CE5"/>
</linearGradient>
<linearGradient id="paint1_linear_13_77" x1="0" y1="0" x2="67.8372" y2="135.025" gradientUnits="userSpaceOnUse">
<stop offset="0.519231" stop-color="#D9D9D9"/>
<stop offset="0.841346" stop-color="#D14700"/>
</linearGradient>
<clipPath id="clip0_13_77">
<rect width="1422" height="759" fill="white"/>
</clipPath>
</defs>
</svg>
